<?xml version="1.0" encoding="utf-8"?>
<!-- Generator: Adobe Illustrator 21.0.0, SVG Export Plug-In . SVG Version: 6.00 Build 0)  -->
<svg version="1.1" id="Ñëîé_1" xmlns="http://www.w3.org/2000/svg" xmlns:xlink="http://www.w3.org/1999/xlink" x="0px" y="0px"
	 viewBox="0 0 389 191" style="enable-background:new 0 0 389 191;" xml:space="preserve">
<style type="text/css">
	.st0{fill:#004990;}
	.st1{fill:#FFFFFF;}
</style>
<g id="layer1" transform="translate(-110.25097,-377.28528)">
	<path id="path5808" class="st0" d="M305.3,389.6l-93,39.8h-58v16.2h-29.1v109.2h360V445.7h-29v-16.2h-58L305.3,389.6z"/>
	<path id="path5812" class="st1" d="M391.1,458.5v17.7h11.4l2.4-17.7H391.1L391.1,458.5z"/>
	<path id="path5824" class="st1" d="M452.9,473.8c0.7,0,1.4-0.1,1.4-1c0-0.7-0.7-0.8-1.3-0.8h-1.2v1.8H452.9L452.9,473.8z
		 M451.8,477.1H451v-5.8h2.2c1.4,0,2,0.5,2,1.6c0,1-0.6,1.5-1.5,1.6l1.6,2.5h-1l-1.5-2.5h-1L451.8,477.1L451.8,477.1z M452.9,478.3
		c2.3,0,4-1.8,4-4.2s-1.8-4.2-4-4.2c-2.3,0-4.1,1.8-4.1,4.2C448.8,476.6,450.6,478.3,452.9,478.3 M447.8,474.2c0-2.9,2.3-5,5.1-5
		c2.7,0,5.1,2.1,5.1,5s-2.3,5-5.1,5C450.1,479.2,447.8,477.1,447.8,474.2"/>
	<path id="path5828" class="st1" d="M182.7,518.7v-60.2h-16.5V533h41.9v-14.3H182.7z"/>
	<path id="path5832" class="st1" d="M348.3,533h39.2v-14.3h-22.6v-9.3h22.6v-13.8h-22.6v-9.4h22.6v-14.4h-39.2v0.1V533z"/>
	<path id="path5834" class="st1" d="M245.7,486.1h-14.5v32.5h14.5V486.1z M262.2,525.2c0,4.3-3.5,7.8-7.8,7.8h-31.8
		c-4.3,0-7.8-3.5-7.8-7.8v-45.7c0-4.3,3.5-7.8,7.8-7.8h31.8c4.3,0,7.8,3.5,7.8,7.8V525.2z"/>
	<path id="path5838" class="st1" d="M322.4,471.7v47h-9.9v-47H298v47h-9.9v-47h-16.5v53.5c0,4.3,3.5,7.8,7.8,7.8h19.5
		c3.3,0,6.3-2.3,6.3-5.6c0,3.3,3.1,5.6,6.3,5.6H331c4.3,0,7.8-3.5,7.8-7.8v-53.5H322.4L322.4,471.7z"/>
	<path id="path5842" class="st1" d="M445.3,509.8L445.3,509.8l-0.1-0.2c-0.1-0.1-0.1-0.3-0.2-0.4l-0.1-0.2
		c-2.6-5.2-8.4-9.6-17.8-13.4l-0.3-0.1c-1.9-0.7-7.5-2.9-8.2-6.5c-0.2-1,0.2-2.6,1.4-3.6c1.2-1.2,3-1.8,5.4-1.8
		c3.8,0,8.2,1.6,10.4,2.5c4.8,2,8.9,3.7,9,3.8l0.4,0.2v-13.4l-0.1-0.1c-0.1-0.1-9.1-5.7-18.2-7c-1-0.1-2.1-0.1-3.1-0.1
		c-8.4,0-14.7,3-18.8,9c-3.5,4.9-3.8,12.7-0.9,18.5c3.8,6.6,9.9,9.3,15.7,12c2.4,1.1,4.9,2.2,7.3,3.6l0,0c2.7,1.6,4,4,3.4,6.2
		s-3.1,3.8-6.4,3.8c-0.4,0-0.9,0-1.3-0.1h-0.2c-6.2-0.9-18.9-5.6-19-5.6l-0.4-0.2v14.7l0.2,0.1c0.1,0,12.4,4.1,23.2,4.1l0,0
		c5.9,0,10.4-1.2,13.3-3.5c0.1-0.1,6.7-5.4,7-14.5C447,515,446.5,512.4,445.3,509.8"/>
</g>
</svg>
